HIERARCHY
ROOT Hips
{
	OFFSET 0.000000 0.000000 0.000000
	CHANNELS 6 Xposition Yposition Zposition Xrotation Yrotation Zrotation
	JOINT Thigh.L
	{
		OFFSET 0.055208 0.027001 -0.094106
		CHANNELS 3 Xrotation Yrotation Zrotation
		JOINT Shin.L
		{
			OFFSET 0.060821 0.006087 -0.412928
			CHANNELS 3 Xrotation Yrotation Zrotation
			JOINT Foot.L
			{
				OFFSET -0.042021 0.031688 -0.438342
				CHANNELS 3 Xrotation Yrotation Zrotation
				JOINT Toe.L
				{
					OFFSET 0.048069 -0.126416 -0.064489
					CHANNELS 3 Xrotation Yrotation Zrotation
					End Site
					{
						OFFSET 0.000000 0.050000 0.000000
					}
				}
			}
		}
	}
	JOINT Thigh.R
	{
		OFFSET -0.060351 0.021319 -0.106657
		CHANNELS 3 Xrotation Yrotation Zrotation
		JOINT Shin.R
		{
			OFFSET -0.049762 0.014116 -0.394355
			CHANNELS 3 Xrotation Yrotation Zrotation
			JOINT Foot.R
			{
				OFFSET 0.013986 0.019849 -0.447406
				CHANNELS 3 Xrotation Yrotation Zrotation
				JOINT Toe.R
				{
					OFFSET -0.039558 -0.127268 -0.064335
					CHANNELS 3 Xrotation Yrotation Zrotation
					End Site
					{
						OFFSET 0.000000 0.050000 0.000000
					}
				}
			}
		}
	}
	JOINT Spine
	{
		OFFSET -0.002705 0.027671 0.113168
		CHANNELS 3 Xrotation Yrotation Zrotation
		JOINT Spine.2
		{
			OFFSET 0.008951 0.006969 0.139025
			CHANNELS 3 Xrotation Yrotation Zrotation
			JOINT Chest
			{
				OFFSET -0.010743 -0.022940 0.055647
				CHANNELS 3 Xrotation Yrotation Zrotation
				JOINT Neck
				{
					OFFSET -0.012030 0.025961 0.169406
					CHANNELS 3 Xrotation Yrotation Zrotation
					JOINT Head
					{
						OFFSET 0.025223 -0.021337 0.170735
						CHANNELS 3 Xrotation Yrotation Zrotation
						End Site
						{
							OFFSET 0.000000 0.050000 0.000000
						}
					}
				}
				JOINT Clavicle.L
				{
					OFFSET 0.047051 0.004907 0.087114
					CHANNELS 3 Xrotation Yrotation Zrotation
					JOINT UpperArm.L
					{
						OFFSET 0.125992 0.013762 0.057763
						CHANNELS 3 Xrotation Yrotation Zrotation
						JOINT ForeArm.L
						{
							OFFSET 0.269561 0.042948 -0.075713
							CHANNELS 3 Xrotation Yrotation Zrotation
							JOINT Hand.L
							{
								OFFSET 0.273761 0.000867 0.022220
								CHANNELS 3 Xrotation Yrotation Zrotation
								JOINT Thumb1.L
								{
									OFFSET 0.154606 0.000379 0.009708
									CHANNELS 3 Xrotation Yrotation Zrotation
									JOINT Thumb2.L
									{
										OFFSET 0.029902 0.000095 0.002427
										CHANNELS 3 Xrotation Yrotation Zrotation
										End Site
										{
											OFFSET 0.024918 0.000079 0.002022
										}
									}
								}
								JOINT Index1.L
								{
									OFFSET 0.137606 0.000379 0.009708
									CHANNELS 3 Xrotation Yrotation Zrotation
									JOINT Index2.L
									{
										OFFSET 0.029902 0.000095 0.002427
										CHANNELS 3 Xrotation Yrotation Zrotation
										JOINT Index3.L
										{
											OFFSET 0.021928 0.000069 0.001780
											CHANNELS 3 Xrotation Yrotation Zrotation
											End Site
											{
												OFFSET 0.017941 0.000057 0.001456
											}
										}
									}
								}
								JOINT Middle1.L
								{
									OFFSET 0.119606 0.000379 0.009708
									CHANNELS 3 Xrotation Yrotation Zrotation
									JOINT Middle2.L
									{
										OFFSET 0.030898 0.000098 0.002508
										CHANNELS 3 Xrotation Yrotation Zrotation
										JOINT Middle3.L
										{
											OFFSET 0.021928 0.000069 0.001780
											CHANNELS 3 Xrotation Yrotation Zrotation
											End Site
											{
												OFFSET 0.017941 0.000057 0.001456
											}
										}
									}
								}
								JOINT Ring1.L
								{
									OFFSET 0.101606 0.000379 0.009708
									CHANNELS 3 Xrotation Yrotation Zrotation
									JOINT Ring2.L
									{
										OFFSET 0.028905 0.000092 0.002346
										CHANNELS 3 Xrotation Yrotation Zrotation
										JOINT Ring3.L
										{
											OFFSET 0.019934 0.000063 0.001618
											CHANNELS 3 Xrotation Yrotation Zrotation
											End Site
											{
												OFFSET 0.016944 0.000054 0.001375
											}
										}
									}
								}
								JOINT Pinky1.L
								{
									OFFSET 0.085606 0.000379 0.009708
									CHANNELS 3 Xrotation Yrotation Zrotation
									JOINT Pinky2.L
									{
										OFFSET 0.023921 0.000076 0.001942
										CHANNELS 3 Xrotation Yrotation Zrotation
										JOINT Pinky3.L
										{
											OFFSET 0.016944 0.000054 0.001375
											CHANNELS 3 Xrotation Yrotation Zrotation
											End Site
											{
												OFFSET 0.013954 0.000044 0.001133
											}
										}
									}
								}
							}
						}
					}
				}
				JOINT Clavicle.R
				{
					OFFSET -0.047864 0.011053 0.086184
					CHANNELS 3 Xrotation Yrotation Zrotation
					JOINT UpperArm.R
					{
						OFFSET -0.109333 0.010005 0.054069
						CHANNELS 3 Xrotation Yrotation Zrotation
						JOINT ForeArm.R
						{
							OFFSET -0.287710 0.027801 -0.040156
							CHANNELS 3 Xrotation Yrotation Zrotation
							JOINT Hand.R
							{
								OFFSET -0.270070 0.014417 -0.005460
								CHANNELS 3 Xrotation Yrotation Zrotation
								JOINT Thumb1.R
								{
									OFFSET -0.154805 0.006396 -0.002422
									CHANNELS 3 Xrotation Yrotation Zrotation
									JOINT Thumb2.R
									{
										OFFSET -0.029951 0.001599 -0.000605
										CHANNELS 3 Xrotation Yrotation Zrotation
										End Site
										{
											OFFSET -0.024959 0.001332 -0.000505
										}
									}
								}
								JOINT Index1.R
								{
									OFFSET -0.137805 0.006396 -0.002422
									CHANNELS 3 Xrotation Yrotation Zrotation
									JOINT Index2.R
									{
										OFFSET -0.029951 0.001599 -0.000605
										CHANNELS 3 Xrotation Yrotation Zrotation
										JOINT Index3.R
										{
											OFFSET -0.021964 0.001173 -0.000444
											CHANNELS 3 Xrotation Yrotation Zrotation
											End Site
											{
												OFFSET -0.017971 0.000959 -0.000363
											}
										}
									}
								}
								JOINT Middle1.R
								{
									OFFSET -0.119805 0.006396 -0.002422
									CHANNELS 3 Xrotation Yrotation Zrotation
									JOINT Middle2.R
									{
										OFFSET -0.030950 0.001652 -0.000626
										CHANNELS 3 Xrotation Yrotation Zrotation
										JOINT Middle3.R
										{
											OFFSET -0.021964 0.001173 -0.000444
											CHANNELS 3 Xrotation Yrotation Zrotation
											End Site
											{
												OFFSET -0.017971 0.000959 -0.000363
											}
										}
									}
								}
								JOINT Ring1.R
								{
									OFFSET -0.101805 0.006396 -0.002422
									CHANNELS 3 Xrotation Yrotation Zrotation
									JOINT Ring2.R
									{
										OFFSET -0.028953 0.001546 -0.000585
										CHANNELS 3 Xrotation Yrotation Zrotation
										JOINT Ring3.R
										{
											OFFSET -0.019967 0.001066 -0.000404
											CHANNELS 3 Xrotation Yrotation Zrotation
											End Site
											{
												OFFSET -0.016972 0.000906 -0.000343
											}
										}
									}
								}
								JOINT Pinky1.R
								{
									OFFSET -0.085805 0.006396 -0.002422
									CHANNELS 3 Xrotation Yrotation Zrotation
									JOINT Pinky2.R
									{
										OFFSET -0.023961 0.001279 -0.000484
										CHANNELS 3 Xrotation Yrotation Zrotation
										JOINT Pinky3.R
										{
											OFFSET -0.016972 0.000906 -0.000343
											CHANNELS 3 Xrotation Yrotation Zrotation
											End Site
											{
												OFFSET -0.013977 0.000746 -0.000283
											}
										}
									}
								}
							}
						}
					}
				}
			}
		}
	}
}
MOTION
Frames: 4
Frame Time: 0.04166667
0.037906843 -0.352497820 1.050312 -21.558511 -0.320831 2.148212 -67.095155 -13.303654 -12.378315 115.017599 9.447558 -18.670134 -19.420209 -6.912691 4.800124 -0.716669 -1.334169 -1.168908 -68.641343 16.075921 9.535111 119.400927 -12.867905 10.795386 -21.541589 3.380502 -0.225510 -1.607883 -2.846993 0.621436 56.132619 -1.559342 0.791075 -11.721653 -2.641905 -0.964176 3.992199 1.058571 -0.313362 -9.561234 3.005476 9.779337 -10.132210 0.906607 -2.485277 -1.715695 15.538480 -22.701662 -1.025799 37.145702 -19.310403 3.002663 -6.364574 -23.691486 -8.638766 -5.468386 -3.112292 0.000000 0.000000 0.000000 0.000000 0.000000 0.000000 0.000000 0.000000 0.000000 0.000000 0.000000 0.000000 0.000000 0.000000 0.000000 0.000000 0.000000 0.000000 0.000000 0.000000 0.000000 0.000000 0.000000 0.000000 0.000000 0.000000 0.000000 0.000000 0.000000 0.000000 0.000000 0.000000 0.000000 0.000000 0.000000 0.000000 0.000000 0.000000 0.000000 0.000000 0.000000 0.000000 1.257952 -15.109924 24.483939 -0.342349 -37.414333 17.858722 0.151637 8.355378 29.232373 -6.968630 2.936445 2.684447 0.000000 0.000000 0.000000 0.000000 0.000000 0.000000 0.000000 0.000000 0.000000 0.000000 0.000000 0.000000 0.000000 0.000000 0.000000 0.000000 0.000000 0.000000 0.000000 0.000000 0.000000 0.000000 0.000000 0.000000 0.000000 0.000000 0.000000 0.000000 0.000000 0.000000 0.000000 0.000000 0.000000 0.000000 0.000000 0.000000 0.000000 0.000000 0.000000 0.000000 0.000000 0.000000
0.038275607 -0.354033341 1.049016 -22.079913 -0.325676 2.246109 -67.320480 -13.221760 -12.519794 115.571661 9.323895 -18.794329 -18.792567 -6.669230 4.806155 -0.716964 -1.338815 -1.153905 -68.774711 16.144082 9.626642 119.953745 -12.774516 10.879409 -21.015152 3.221916 -0.278938 -1.579024 -2.830106 0.628366 56.409937 -1.576728 0.845923 -11.673803 -2.670943 -0.978261 3.972784 1.030871 -0.305323 -9.415825 3.022859 9.775753 -10.198732 0.866114 -2.433685 -1.759212 15.443422 -22.818009 -1.096916 37.322400 -19.337479 3.124395 -6.491892 -23.572920 -8.510154 -5.307723 -3.112871 0.000000 0.000000 0.000000 0.000000 0.000000 0.000000 0.000000 0.000000 0.000000 0.000000 0.000000 0.000000 0.000000 0.000000 0.000000 0.000000 0.000000 0.000000 0.000000 0.000000 0.000000 0.000000 0.000000 0.000000 0.000000 0.000000 0.000000 0.000000 0.000000 0.000000 0.000000 0.000000 0.000000 0.000000 0.000000 0.000000 0.000000 0.000000 0.000000 0.000000 0.000000 0.000000 1.178775 -14.966171 24.535014 -0.358209 -37.556593 17.858201 0.217979 8.471079 29.135622 -6.815157 2.829119 2.617774 0.000000 0.000000 0.000000 0.000000 0.000000 0.000000 0.000000 0.000000 0.000000 0.000000 0.000000 0.000000 0.000000 0.000000 0.000000 0.000000 0.000000 0.000000 0.000000 0.000000 0.000000 0.000000 0.000000 0.000000 0.000000 0.000000 0.000000 0.000000 0.000000 0.000000 0.000000 0.000000 0.000000 0.000000 0.000000 0.000000 0.000000 0.000000 0.000000 0.000000 0.000000 0.000000
0.038820675 -0.355577188 1.047848 -22.390892 -0.307845 2.346382 -67.489988 -13.206085 -12.620033 116.049299 9.260183 -18.943066 -18.521207 -6.534958 4.816380 -0.696417 -1.354203 -1.167568 -68.954369 16.232743 9.744299 120.473281 -12.708727 11.017446 -20.562174 3.094385 -0.361104 -1.576488 -2.835459 0.634343 56.507321 -1.581479 0.862537 -11.632877 -2.682102 -0.985195 3.951247 1.042706 -0.294245 -9.429413 2.971644 9.786962 -10.248452 0.894651 -2.453080 -1.708033 15.494843 -22.911975 -1.135357 37.339056 -19.267495 3.144901 -6.589820 -23.584688 -8.489835 -5.172340 -3.108636 0.000000 0.000000 0.000000 0.000000 0.000000 0.000000 0.000000 0.000000 0.000000 0.000000 0.000000 0.000000 0.000000 0.000000 0.000000 0.000000 0.000000 0.000000 0.000000 0.000000 0.000000 0.000000 0.000000 0.000000 0.000000 0.000000 0.000000 0.000000 0.000000 0.000000 0.000000 0.000000 0.000000 0.000000 0.000000 0.000000 0.000000 0.000000 0.000000 0.000000 0.000000 0.000000 1.222550 -15.027084 24.584166 -0.390858 -37.543095 17.783392 0.153688 8.494390 29.075361 -6.820899 2.875477 2.619467 0.000000 0.000000 0.000000 0.000000 0.000000 0.000000 0.000000 0.000000 0.000000 0.000000 0.000000 0.000000 0.000000 0.000000 0.000000 0.000000 0.000000 0.000000 0.000000 0.000000 0.000000 0.000000 0.000000 0.000000 0.000000 0.000000 0.000000 0.000000 0.000000 0.000000 0.000000 0.000000 0.000000 0.000000 0.000000 0.000000 0.000000 0.000000 0.000000 0.000000 0.000000 0.000000
0.039301743 -0.356802019 1.047152 -22.681583 -0.294339 2.382863 -67.618163 -13.150965 -12.702988 116.463420 9.185165 -19.017982 -18.153835 -6.369943 4.864675 -0.714549 -1.344518 -1.150076 -69.075340 16.222010 9.786094 120.889796 -12.572296 11.047226 -20.165683 3.002661 -0.407599 -1.580777 -2.840937 0.622159 56.647105 -1.595782 0.875232 -11.598913 -2.683966 -1.006854 3.913773 1.052453 -0.299462 -9.379151 2.951457 9.804013 -10.208613 0.898978 -2.412503 -1.714273 15.470764 -22.894080 -1.069048 37.393708 -19.300678 3.275071 -6.713018 -23.570528 -8.435050 -5.124593 -3.107359 0.000000 0.000000 0.000000 0.000000 0.000000 0.000000 0.000000 0.000000 0.000000 0.000000 0.000000 0.000000 0.000000 0.000000 0.000000 0.000000 0.000000 0.000000 0.000000 0.000000 0.000000 0.000000 0.000000 0.000000 0.000000 0.000000 0.000000 0.000000 0.000000 0.000000 0.000000 0.000000 0.000000 0.000000 0.000000 0.000000 0.000000 0.000000 0.000000 0.000000 0.000000 0.000000 1.166104 -15.037174 24.570368 -0.334707 -37.619245 17.834817 0.156099 8.566422 29.002665 -6.780682 2.900604 2.563363 0.000000 0.000000 0.000000 0.000000 0.000000 0.000000 0.000000 0.000000 0.000000 0.000000 0.000000 0.000000 0.000000 0.000000 0.000000 0.000000 0.000000 0.000000 0.000000 0.000000 0.000000 0.000000 0.000000 0.000000 0.000000 0.000000 0.000000 0.000000 0.000000 0.000000 0.000000 0.000000 0.000000 0.000000 0.000000 0.000000 0.000000 0.000000 0.000000 0.000000 0.000000 0.000000
